<svg viewBox="0 0 60 60" xmlns="http://www.w3.org/2000/svg"><path d="m56.83 52a3.71 3.71 0 0 0 -.42.7h-4.19a3.71 3.71 0 0 0 -.42-.7v-14.76h5z" fill="#bb2b66"/><path d="m53.34 37.24h1.95v15.49h-1.95z" opacity=".3"/><path d="m52 52.13.3.36a.3.3 0 0 0 .23.11.24.24 0 0 0 .19-.08l.39-.54a.36.36 0 0 1 .46 0l.51.44a.35.35 0 0 0 .47 0l.5-.44a.36.36 0 0 1 .46 0l.39.54a.27.27 0 0 0 .2.08.28.28 0 0 0 .22-.11l.31-.36a.23.23 0 0 1 .2-.1l-1.48 4a2.75 2.75 0 0 0 -2.07 0l-1.48-4.03a.26.26 0 0 1 .2.13z" fill="#f4edce"/><path d="m53.28 56a2.75 2.75 0 0 1 2.07 0l-1 2.73z" fill="#bb2b66"/><path d="m58.08 47.57h-8.17a2 2 0 0 0 -.84-.46l-20.46-36.5h-6.09l-21.02 41.63.92 3.43-.42 3.06 1.32-2.62 21.15-41.93h2.18l19.6 34.75a1.55 1.55 0 0 0 0 .31 2.23 2.23 0 0 0 2.23 2.23 2.17 2.17 0 0 0 1.46-.56h8.17a.41.41 0 0 0 .42-.41v-2.5a.41.41 0 0 0 -.45-.43z" fill="#b5b3b9"/><circle cx="48.45" cy="49.24" fill="#54515d" r="1.26"/><path d="m28.21 5.46h-1.39v-3.46a.7.7 0 0 0 -.7-.7h-1.12a.69.69 0 0 0 -.69.7v3.46h-1.4a.69.69 0 0 0 -.7.69v4.87l1.28 3.68c.06.14.19.55.56.55h3c.37 0 .51-.41.57-.55l1.29-3.7v-4.85a.69.69 0 0 0 -.7-.69z" fill="#54515d"/><circle cx="25.56" cy="10.48" fill="#b5b3b9" r="1.26"/></svg>