<svg viewBox="0 0 70 106" xmlns="http://www.w3.org/2000/svg"><path d="m16.6 68.4c1.5 1.5-.9 3.9-2.4 2.3s.9-3.9 2.4-2.3zm12.9-50c-1.3-.2-1.5 1.9-.2 1.8 8.7.5 9.7 15.3 1.2 15.9 1.5 1.3 1.6 4 1.5 5.3 2.2.7 5.8 1.4 6.8-.8.7-13.5 9.4-19.7-9.3-22.2zm1.7 46.9c2.6-3.6.3-8.5-1.3-11.2l10.4-2.1a17.5 17.5 0 0 1 -2.2-5.1c-4.1 1-8.9-.3-11.3-3.4-3.5 4.4-5.9 8.5-7.1 12.6-3.2 9.1 5.8 15.4 11.5 9.2zm24.6-30c-1.5-1.6-3.9.8-2.4 2.3s4-.8 2.4-2.3zm-30 37.7a1.7 1.7 0 0 0 0 3.3 1.7 1.7 0 0 0 0-3.3zm23.1 9.1c-2.1 0-2.1 3.4 0 3.4a1.7 1.7 0 0 0 0-3.4z" fill="#0f82f2"/><path d="m24.6 100.5a1.7 1.7 0 0 1 0-3.4c2.1 0 2.1 3.4 0 3.4z" fill="#0f82f2"/><path d="m19.6 53.4c-1.2-6.1 3.6-18.1 12.3-15.6-5.1 5.4-9.3 11.2-11.2 15.8zm24.8-24.1c2-6 1.7-10.5-4.1-14 1.4-1.1 7.3-4.7 4-6.9-2.4 4.3-9.5 1.2-11.6 5.9-5.3-2.3-11.6-.2-11.9 6.3l1.1.2c1.3-2.8 3.6-4.5 7.3-2.4 6.7-1.1 14.2 5.7 14 10.8zm-4.3 39.3c8-.3 11.2-10.3 10.3-16l-1.1-.2c-1.9 4.6-6.1 10.4-11.2 15.8a14.2 14.2 0 0 0 2 .4zm-14.4 29c2.4-4.3 9.5-1.2 11.6-5.9 5.3 2.3 11.6.2 11.9-6.3l-1.1-.2c-1.3 2.8-3.2 4.2-7.6 2.6-8.1-.5-13.9-5.9-13.7-11h-1.2c-2 6-1.7 10.5 4.1 14-1.6 1.3-7.1 4-4 6.8z" fill="#fd8c00"/><path d="m42.5 31.4c0-2.2 3.4-2.2 3.3 0s-3.3 2.1-3.3 0zm2.9-22.5a1.7 1.7 0 0 0 0-3.4c-2.1 0-2.1 3.4 0 3.4zm-24.3 11.6a1.7 1.7 0 0 0 0 3.4c2.1 0 2.1-3.4 0-3.4zm-8 13.7c-2.1 0-2.1 3.4 0 3.3s2.2-3.3 0-3.3zm44.9 34.7c-2.3-2-4.2 2.7-1.1 2.9a1.7 1.7 0 0 0 1.1-2.9zm-16.9 17c-8.9-.2-10.4-15.3-1.6-16-1.5-1.3-1.6-4-1.5-5.3-2.3-.7-5.8-1.4-6.8.8 1.1 6.2-4.4 10.8-2.4 16.7.2 2.7 13.9 8.8 12.3 3.8zm2.8-47.7c-7.8-.1-7 9.8-3.8 13.7l-10.4 2.1a17.5 17.5 0 0 1 2.2 5.1c4.1-1 8.9.3 11.3 3.4 3.5-4.4 5.9-8.5 7.1-12.6 1.7-7.1-.6-11.1-6.4-11.7z" fill="#cd0e66"/><path d="m31 25.5v.8a.5.5 0 0 1 -.5.5.6.6 0 0 1 -.6-.5v-.8a.5.5 0 0 1 .5-.5.5.5 0 0 1 .6.5zm4.4 19.4a.5.5 0 0 0 .5-.5.6.6 0 0 0 -.5-.6.6.6 0 0 0 -.6.6.6.6 0 0 0 .6.5zm-2.9-.4a.6.6 0 0 0 .7-.3.7.7 0 0 0 -.4-.7.6.6 0 0 0 -.7.4c0 .3.1.6.4.6zm-2.3-2.1a.6.6 0 0 0 -.6.5.6.6 0 1 0 1.1 0 .5.5 0 0 0 -.5-.5zm9.4 38.6a.5.5 0 0 0 .5-.5v-.8a.6.6 0 0 0 -.6-.5.5.5 0 0 0 -.5.5v.8a.5.5 0 0 0 .6.5zm19.4-10.9a2.1 2.1 0 0 1 -3.6 1.5 2 2 0 0 1 -.4-2.5c-.5-2.6-1-5.2-1.4-7.9h-.2a26.1 26.1 0 0 1 -2.7-3.2c-.5 3.2-1.8 6.4-4.4 8.4s-4.5 2.9-6.9 2.6a1.4 1.4 0 0 0 .9.3c1 .1 2 .4 2.2 1.4s-.1 1.7.3 2a.6.6 0 0 1 0 .9l.8.3a.5.5 0 0 1 .1.8 1 1 0 0 0 -.5.6 1.9 1.9 0 0 0 -.2.8l1 .3.2.8a12.8 12.8 0 0 0 -1.7 3c-.3.9.4 1.4.4 2.6a5.3 5.3 0 0 1 -1.2 2.9 1.7 1.7 0 0 1 .1 1.9 6 6 0 0 0 2.1.4 3.8 3.8 0 0 0 3.6-2.6 2.2 2.2 0 0 1 -.1-3.1 2.2 2.2 0 0 1 3 0 2.1 2.1 0 0 1 -.7 3.5 9.7 9.7 0 0 1 -2.1 4.8c-2.4 2.9-6.6 3-10.1 1.7a4.4 4.4 0 0 1 -1.6 1.7c-2.9 1.9-6.4.8-8.8 2.6l-.8.9a2.8 2.8 0 0 1 .4 1.3 2.1 2.1 0 1 1 -2.3-2.1c-.1-3.8 3-4.7 4.6-5.9-3.1-2-5-4.6-5-8.2a21.1 21.1 0 0 1 1.1-5.9 2.3 2.3 0 0 1 -.8-3.6 2.2 2.2 0 1 1 2.9 3.2 9.2 9.2 0 0 0 .5 2.5c.4-2.5 1.9-3.9 2.7-8.8a24.9 24.9 0 0 1 -7.7-2.6 7.4 7.4 0 0 1 -3.4-3.8 11.8 11.8 0 0 1 -.2-7.2l-1.8-.6a107.3 107.3 0 0 1 -.2 12.6 2.1 2.1 0 0 1 -.2 2.7 2.4 2.4 0 0 1 -1.5.6 2.1 2.1 0 0 1 -1.5-3.7 94.5 94.5 0 0 0 .2-13 3.6 3.6 0 0 1 -2-.3 1.6 1.6 0 0 1 -.9-2.2 1.7 1.7 0 0 1 0-1.4 1.7 1.7 0 0 1 0-1.4 1.3 1.3 0 0 1 .7-1.8 2.5 2.5 0 0 1 1.6-.5c-.4-3.3-1-6.6-1.6-9.8a2.1 2.1 0 0 1 -.9-1.7 2.2 2.2 0 0 1 2.1-2.2 2.2 2.2 0 0 1 1.9 3.2c.5 2.6 1 5.2 1.4 7.9h.2l2.7 3.2c.5-3.2 1.8-6.4 4.4-8.4s4.5-2.9 6.9-2.6a1.4 1.4 0 0 0 -.9-.3c-1-.1-2-.4-2.2-1.4s.1-1.7-.3-2a.6.6 0 0 1 0-.9l-.8-.3a.6.6 0 0 1 0-.9 1.5 1.5 0 0 0 .6-1.3l-1-.3-.2-.8a12.8 12.8 0 0 0 1.7-3 1.4 1.4 0 0 0 0-.9c-.2-.9-1.1-2 .8-4.6a1.7 1.7 0 0 1 -.1-1.9 6 6 0 0 0 -2.1-.4 3.8 3.8 0 0 0 -3.6 2.6 2.1 2.1 0 1 1 -3.6 1.6 2.2 2.2 0 0 1 1.4-2c.8-4.9 3.8-7.3 7.9-7.3a8.9 8.9 0 0 1 3.8.7h.5a4.4 4.4 0 0 1 1.6-1.6c2.9-1.9 6.4-.8 8.8-2.6l.8-.9a2.2 2.2 0 0 1 1.7-3.4 2.1 2.1 0 0 1 1.5 3.6 2 2 0 0 1 -1.3.6c.1 3.8-3 4.7-4.6 5.9 3.1 2 5 4.6 5 8.2a21.1 21.1 0 0 1 -1.1 5.9l.8.5a2.2 2.2 0 0 1 -1.5 3.7 2.2 2.2 0 0 1 -2.2-2.1 2.1 2.1 0 0 1 .8-1.7 7.4 7.4 0 0 0 -.5-2.5c-.4 2.5-1.9 3.9-2.7 8.8a24.9 24.9 0 0 1 7.7 2.6 7 7 0 0 1 3.4 3.8 11.8 11.8 0 0 1 .2 7.2l1.8.6a105.3 105.3 0 0 1 .2-12.6 2.1 2.1 0 0 1 1.7-3.3 2.1 2.1 0 0 1 1.5 3.7 94.5 94.5 0 0 0 -.2 13 3.6 3.6 0 0 1 2 .3 1.6 1.6 0 0 1 .9 2.2 1.7 1.7 0 0 1 0 1.4 1.7 1.7 0 0 1 0 1.4 1.3 1.3 0 0 1 -.7 1.8 2.5 2.5 0 0 1 -1.6.5c.4 3.3 1 6.6 1.6 9.8a2.1 2.1 0 0 1 .9 1.7zm-46.6-33.5a1.1 1.1 0 1 0 0-1.5 1.1 1.1 0 0 0 0 1.5zm2.5 17.4.2.3a91.2 91.2 0 0 1 -.1 13.2 1.4 1.4 0 0 1 1.1.1 116.4 116.4 0 0 0 -.3-18.6l-1.1-2.1a5.4 5.4 0 0 1 -.3-1 1.3 1.3 0 0 1 .9-1.2l-1.2-6.9-1.1.2c.7 3.2 1.2 6.5 1.6 9.8 0 .1.1.7.1.8a.6.6 0 0 1 -.5.6c-.3.1-.5-.2-.6-.4v-.4a3.9 3.9 0 0 0 -1.5.6v.2l.2.2a3.4 3.4 0 0 0 2 .1.5.5 0 1 1 .2 1 3.9 3.9 0 0 1 -2.4-.1c.1.5.8.6 1.3.6h.9c.3 0 .6.2.6.4a.6.6 0 0 1 -.4.7 3.9 3.9 0 0 1 -2.4-.2c.1.5.8.6 1.3.6h.9c.2-.1.5.1.6.4a.6.6 0 0 1 -.5.6 4.5 4.5 0 0 1 -2.3-.1c0 .5.9.7 1.5.7s1.1-.2 1.3-.1zm1.2 14.8a1.1 1.1 0 1 0 0 1.5 1.1 1.1 0 0 0 0-1.5zm3.2-13.5a23.1 23.1 0 0 1 -.1-5.9c-.3-.1-.3-.2-1.4-1.6l-1.9-2.1c-.2-.1-.4 0-.4.2s1.3 2.7 1.3 2.7.5 5.4.5 6zm20.2-18.3a19.4 19.4 0 0 0 -.2 2.4 7.5 7.5 0 0 1 3.5-1.6zm1.2-12.8c-2.6-3.7-6.7-5.3-11.2-5.2h-.4a.5.5 0 0 0 0 .6 6.8 6.8 0 0 1 3.1.6c3.5 1.5 4.7 5.7 4.7 9.5a6.6 6.6 0 0 1 -5.3 6.8c.9 1.1 1 3 1 4.5 1.9.5 4.3.9 5.7-.4a25.1 25.1 0 0 1 2.5-12 4.9 4.9 0 0 0 -.1-4.4zm-2.3 40.5a19.5 19.5 0 0 0 .2 2.3l3.9-4.5a10.6 10.6 0 0 0 -9.9-3.1 8.9 8.9 0 0 1 -.1 4.3c1.7-.6 3.8-.1 5.6.4s.3.5.3.6zm4.8-3.1a38.2 38.2 0 0 0 6.2-10.9l-18.8 3.7a16.5 16.5 0 0 1 1.7 4c3.9-.8 8.3.3 10.9 3.2zm-3.8-10a16.5 16.5 0 0 1 -1.7-4c-3.9.8-8.3-.3-10.9-3.2a38.2 38.2 0 0 0 -6.2 10.9zm-7.8-10.3a19.5 19.5 0 0 0 -.2-2.3l-3.9 4.5a10.6 10.6 0 0 0 9.9 3.1 8.9 8.9 0 0 1 .1-4.3c-1.7.6-3.8.1-5.6-.4s-.3-.5-.3-.6zm12.6-11a1.1 1.1 0 0 0 -1.1 1.1 1.1 1.1 0 0 0 1.1 1 1.1 1.1 0 0 0 1-1 1.1 1.1 0 0 0 -1-1.1zm.5-22.4a.9.9 0 0 0 1.5 0 1.1 1.1 0 0 0 -1.5-1.5 1 1 0 0 0 0 1.5zm-22.9 13.6a.9.9 0 0 0 -1.5 0 1.1 1.1 0 1 0 1.5 0zm7.8-3.6c4.7 0 8.9 1.6 11.7 5.3a11.9 11.9 0 0 1 2.5 5.9c1.9-5.9 1.7-9.8-3.5-13.1a3.6 3.6 0 0 0 -.4 1.9.5.5 0 0 1 -.5.6.5.5 0 0 1 -.5-.5c-.5-5.1 5.8-3.8 5.7-8.9l-1 1.1c-2.6 2-5.8 1.1-8.4 2.4a3.5 3.5 0 0 0 -1.7 1.5l1.7.6a.5.5 0 0 1 -.4 1l-4.1-1.4a8.9 8.9 0 0 0 -5.6.3c-2.2 1.1-3.2 3.1-3.7 5.5h.1a5 5 0 0 1 4.6-3.1 8.2 8.2 0 0 1 3.5.9zm5.6 14.7a6.2 6.2 0 0 0 .6-2.9c0-3-.8-6.6-3.3-8.2a5.9 5.9 0 0 0 -3.1-.8 4.6 4.6 0 0 0 -.7 1 2.8 2.8 0 0 0 -.4 1.2 6.5 6.5 0 0 1 3.3.2 3.9 3.9 0 0 1 1.7 1.5.5.5 0 0 1 -.1.7.6.6 0 0 1 -.8-.1c-1.3-2-3-1.2-4.1-1.3a3.7 3.7 0 0 1 .4 1.4 5.9 5.9 0 0 1 -1 2.6l-.6.9 1.3.4a.5.5 0 0 1 .3.7c0 .2-.3.4-.7.3a2.1 2.1 0 0 1 -.3 1.2 5 5 0 0 0 3.8-.8.5.5 0 0 1 .8.1.5.5 0 0 1 -.1.7 6.5 6.5 0 0 1 -4.3 1.1c1.1.9.2 2.4.8 2.8l.4.2h.9a5.9 5.9 0 0 0 5.2-2.9zm-15 20.7c1.7-4.1 5-9.2 10.6-15.2-2.1-.5-4.7 1-6.4 2.3-3.7 2.8-4.5 8.3-4.2 12.9zm10.4 11.8h.1c2.1-3 .7-7.2-1.2-10.4l-9.3 1.9c-2.8 10.6 7.1 12.9 10.4 8.5zm-.1 3.9a19.4 19.4 0 0 0 .2-2.4 7.5 7.5 0 0 1 -3.5 1.6zm-1.2 12.8c2.6 3.7 6.7 5.3 11.2 5.2.3 0 .5 0 .5-.3a1 1 0 0 0 -.1-.3 7 7 0 0 1 -3.1-.6c-3.5-1.5-4.7-5.8-4.7-9.5a6.6 6.6 0 0 1 5.3-6.8c-.9-1.1-1-3-1-4.5-1.9-.5-4.3-.9-5.6.4a24.4 24.4 0 0 1 -1.7 9.8c-.8 2.1-2.1 4.1-.8 6.6zm-3.5-6.1a1.1 1.1 0 0 0 1.1-1.1 1.1 1.1 0 0 0 -1.1-1 1.1 1.1 0 0 0 -1 1 1.1 1.1 0 0 0 1 1.1zm-.5 22.4a.9.9 0 0 0 -1.5 0 1.1 1.1 0 0 0 1.5 1.5 1 1 0 0 0 0-1.5zm22.9-13.6a.9.9 0 0 0 1.5 0 1.1 1.1 0 1 0 -1.5 0zm-7.8 3.6c-4.7 0-8.9-1.6-11.7-5.3a11.9 11.9 0 0 1 -2.5-5.9c-1.9 5.9-1.7 9.8 3.5 13.1a3.6 3.6 0 0 0 .4-1.9.5.5 0 0 1 .5-.6.5.5 0 0 1 .5.5c.5 5.1-5.8 3.8-5.7 8.9l1-1.1c2.6-2 5.8-1.1 8.4-2.4a3.5 3.5 0 0 0 1.7-1.5l-1.7-.6a.5.5 0 0 1 .4-1l4.1 1.4a8.9 8.9 0 0 0 5.6-.3c2.2-1.1 3.2-3.1 3.7-5.5h-.1a5 5 0 0 1 -4.6 3.1 8.2 8.2 0 0 1 -3.5-.9zm-5.6-14.7a6.2 6.2 0 0 0 -.6 2.9c0 3 .8 6.6 3.3 8.2a5.9 5.9 0 0 0 3.1.8 4.6 4.6 0 0 0 .7-1 2.8 2.8 0 0 0 .4-1.2c-.8 0-3.2.9-5-1.7a.5.5 0 0 1 .1-.7.6.6 0 0 1 .8.1c1.3 2 2.9 1.2 4.1 1.3a3.7 3.7 0 0 1 -.4-1.4 5.9 5.9 0 0 1 1-2.6l.6-.9-1.3-.4a.5.5 0 0 1 -.3-.7c0-.2.3-.4.7-.3a2.1 2.1 0 0 1 .3-1.2 5 5 0 0 0 -3.8.8.5.5 0 0 1 -.8-.1.5.5 0 0 1 .1-.7 6.5 6.5 0 0 1 4.3-1.1c-1.1-.9-.2-2.4-.8-2.8l-.4-.2h-.9a5.9 5.9 0 0 0 -5.2 2.9zm15-20.7c-1.7 4.1-5 9.2-10.6 15.2 2.1.5 4.7-1 6.4-2.3 3.7-2.8 4.5-8.4 4.2-12.9zm-10.4-11.8h-.1c-2.1 3-.7 7.2 1.2 10.4l9.3-1.9c2.8-10.5-7.1-12.9-10.4-8.5zm14.5-3.7a1.1 1.1 0 1 0 0-1.5 1.1 1.1 0 0 0 0 1.5zm.6 22.9c-.2-.7-1.3-2.7-1.3-2.8s-.4-3.7-.5-5.9l-2-.7a23.1 23.1 0 0 1 .1 5.9c.3.1.3.2 1.5 1.6s1.2 1.4 1.8 2.1.5 0 .4-.2zm1.4 8.1 1.1-.2a98.1 98.1 0 0 1 -1.7-10.6.6.6 0 0 1 .5-.6c.3-.1.5.2.6.4v.4a3.9 3.9 0 0 0 1.5-.6v-.2l-.2-.2a3.4 3.4 0 0 0 -2-.1.5.5 0 0 1 -.2-1 3.9 3.9 0 0 1 2.4.1c-.1-.5-.8-.6-1.3-.6h-.9c-.3 0-.6-.2-.6-.4a.6.6 0 0 1 .4-.7 3.9 3.9 0 0 1 2.4.2c-.1-.5-.8-.6-1.3-.6h-.9c-.2.1-.5-.1-.6-.4a.6.6 0 0 1 .5-.6 4.5 4.5 0 0 1 2.3.1c0-.5-.9-.7-1.5-.7s-1.1.1-1.3 0l-.2-.3a90.5 90.5 0 0 1 .1-13.1 1.4 1.4 0 0 1 -1.1-.1 116.3 116.3 0 0 0 .3 18.6l1.1 2.1a5.4 5.4 0 0 1 .3 1 1.3 1.3 0 0 1 -.9 1.2zm1.7 1.2a1.1 1.1 0 1 0 0 1.5 1.1 1.1 0 0 0 0-1.5zm-23-8.3a.5.5 0 0 0 -.5.5.6.6 0 0 0 .5.6.6.6 0 0 0 .6-.6.6.6 0 0 0 -.6-.5zm2.9.4a.6.6 0 0 0 -.7.3.7.7 0 0 0 .4.7.6.6 0 0 0 .7-.4c0-.3-.1-.6-.4-.6zm2.3 2.1a.6.6 0 0 0 .6-.5.6.6 0 1 0 -1.1 0 .5.5 0 0 0 .5.5z" fill="#181824"/></svg>