<svg xmlns="http://www.w3.org/2000/svg" viewBox="0 0 60 60"><path d="M10.83,10.83a33.54,33.54,0,0,0,0,47.45l.39.39a1.11,1.11,0,0,0,1.58,0L58.67,12.8a1.11,1.11,0,0,0,0-1.58l-.39-.39A33.54,33.54,0,0,0,10.83,10.83Z" style="fill:#fff;opacity:0.5"/><path d="M10.83,10.83,30.6,30.6M10.83,10.83,30.6,30.6M11.67,10l3.05,3.28M12.54,9.23l2.93,3.38m-2-4.13L16.25,12M14.36,7.76l2.69,3.57M31.34,30l-16-22.9m16,22.9-16-22.9m1-.66,2.43,3.75M17.27,5.79l2.31,3.84M18.29,5.21l2.16,3.91m.9-.48-2-4m1.05-.52L32.19,29.48M20.37,4.14,32.19,29.48M21.44,3.67l1.75,4.12m.94-.39-1.6-4.17m1.1-.4,1.46,4.23m-.35-4.59,1.31,4.27m-.18-4.6,7.23,27m-7.23-27,7.23,27M27,1.86l1,4.36m.14-4.6L29,6m.3-4.6L30,5.83m.46-4.58L31,5.69m.62-4.56L34.06,29M31.63,1.13,34.06,29M32.8,1.05,33,5.51M34,1,34,5.48M35.14,1l-.08,4.47m1.25-4.43-.24,4.46M35,29,37.48,1.13M35,29,37.48,1.13m1.16.12L38.1,5.69m1.7-4.28-.7,4.42M41,1.62,40.1,6m2-4.15-1,4.36m2.15-4.08L36,29.15m7.24-27L36,29.15M44.36,2.47,43.05,6.74m1,.32,1.46-4.23M45,7.4l1.61-4.17m1.08.44L45.91,7.79m2.82-3.65L36.92,29.48M48.73,4.14,36.92,29.48M49.78,4.66l-2,4m3.07-3.43L48.65,9.12m3.18-3.33-2.3,3.84m3.3-3.22-2.44,3.75M53.8,7.07,37.76,30m16-22.9L37.76,30m17-22.21-2.69,3.57m3.62-2.85L52.85,12m.78.66,2.93-3.38m.87.78-3,3.28m3.9-2.46L38.51,30.6M10.83,10.83,30.6,30.6M10,11.67l3.28,3.05M9.23,12.54l3.38,2.93m-4.13-2L12,16.25M7.76,14.36l3.57,2.69M7.07,15.31l22.9,16m-22.9-16,22.9,16M6.41,16.28l3.75,2.43M5.79,17.27l3.84,2.31M5.21,18.29l3.91,2.16m-.48.9-4-2m-.52,1.05L29.48,32.19M4.14,20.37,29.48,32.19M3.67,21.44l4.12,1.75m-.39.94-4.17-1.6m-.4,1.1,4.23,1.46m-4.59-.35,4.27,1.31m-4.6-.18,27,7.23m-27-7.23,27,7.23M1.86,27l4.36,1m-4.6.14L6,29m-4.6.3,4.42.7m-.14,1-4.44-.55m-.12,1.17L29,34.06M1.13,31.63,29,34.06M1.05,32.8,5.51,33M1,34,5.48,34M1,35.14l4.47-.08m0,1-4.46.24m.08,1.17L29,35M1.13,37.48,29,35M1.25,38.64l4.44-.54m.14,1-4.42.7M1.62,41,6,40.1m-4.15,2,4.36-1M2.14,43.24l27-7.24m-27,7.24,27-7.24M2.47,44.36l4.27-1.31M2.83,45.48,7.06,44M3.23,46.58,7.4,45M3.67,47.66l4.12-1.75M4.14,48.73,29.48,36.92M4.14,48.73,29.48,36.92M4.66,49.78l4-2m.48.9L5.21,50.82m.58,1,3.84-2.3m-3.22,3.3,3.75-2.44M7.07,53.8l22.9-16m-22.9,16,22.9-16m-22.21,17,3.57-2.69M8.48,55.67,12,52.85M9.23,56.56l3.38-2.93m.68.75-3.28,3m.82.85L30.6,38.51" style="fill:none;stroke:#fff;stroke-width:0.3px"/></svg>
