<svg xmlns="http://www.w3.org/2000/svg" viewBox="0 0 60 60"><rect x="-6.22" y="23.91" width="72.32" height="12.05" rx="2" transform="translate(-12.4 29.94) rotate(-45)" style="fill:#fff;opacity:0.5"/><path d="M2.43,48.92,6.31,52.8m-3.1-4.65,2.32,2.32M4,47.37,6.31,49.7M4.76,46.6l2.32,2.32m-1.55-3.1,2.33,2.33m-1.55-3.1,2.32,2.32m.78-.77L7.08,44.27m.78-.77,2.32,2.32m-1.55-3.1L11,45.05M9.41,42l2.32,2.32m-1.55-3.1,3.88,3.88M11,40.4l2.32,2.32m-1.55-3.1L14.06,42m-1.55-3.1,2.32,2.32m-1.55-3.1L15.6,40.4m.78-.78L14.06,37.3m.77-.78,2.32,2.33m-1.55-3.1,2.33,2.32M16.38,35,18.7,37.3m-1.55-3.1,2.33,2.32m2.32.78-3.87-3.87m.77-.78L21,35m-1.55-3.09L21.8,34.2m-1.55-3.1,2.33,2.33M21,30.33l2.32,2.32m.78-.77L21.8,29.55m3.1,1.55-2.32-2.32m.77-.78,2.33,2.33m-1.55-3.1,2.32,2.32m-1.55-3.1,2.33,2.33m-1.55-3.1,3.87,3.87m-3.1-4.65,2.33,2.33m-1.55-3.1,2.32,2.32M28,23.35l2.33,2.33m-1.55-3.1L31.1,24.9m-1.55-3.1,2.33,2.33M30.33,21l2.32,2.32m-1.55-3.1,2.33,2.33m-1.55-3.1L34.2,21.8m-1.55-3.1L35,21m-1.54-3.1L37.3,21.8m-3.1-4.65,2.32,2.33m.78-.78L35,16.38m.78-.78,2.32,2.33m-1.55-3.1,2.33,2.32M37.3,14.06l2.32,2.32m-1.55-3.1L40.4,15.6m-1.55-3.09,2.32,2.32m-1.55-3.1L42,14.06M40.4,11l2.32,2.32m-1.55-3.1,3.88,3.88M42,9.41l2.32,2.32m.78-.77L42.72,8.63m.78-.77,2.32,2.32m-1.55-3.1L46.6,9.41m-1.55-3.1,2.32,2.32m-1.55-3.1,2.33,2.33M46.6,4.76l2.32,2.32m.78-.77L47.37,4m.78-.77,2.32,2.32m-1.55-3.1L52.8,6.31" style="fill:none;stroke:#fff;stroke-width:0.3px"/></svg>
