<svg xmlns="http://www.w3.org/2000/svg" viewBox="0 0 60 60"><path d="M57.71,56.33l-54-54A1,1,0,0,0,2,3V57a1,1,0,0,0,1,1H57a1,1,0,0,0,.69-1.67Zm-45-9.07V26.54L33.46,47.26Z" style="fill:#fff;opacity:0.5"/><path d="M2,53.62H5.29M2,52.52H5.29m0-1.09H2m0-1.1H5.29M2,49.23H5.29M2,48.14H5.29M2,47H7.48M2,46H5.29M2,44.85H5.29M2,43.76H5.29M2,42.66H5.29m0-1.1H2m0-1.09H5.29M2,39.37H5.29M2,38.28H5.29M2,37.18H5.29m2.19-1.09H2M2,35H5.29M2,33.89H5.29M2,32.8H5.29M2,31.7H5.29m0-1.09H2m3.29-1.1H2m0-1.1H5.29M2,27.32H5.29M2,26.22H5.29M2,25.13H7.48M2,24H5.29M2,22.94H5.29M2,21.84H5.29M2,20.74H5.29M2,19.65H5.29M2,18.55H5.29M2,17.46H5.29M2,16.36H5.29M2,15.27H5.29M2,14.17H7.48M2,13.07H5.29m0-1.09H2m0-1.1H5.29M2,9.79H5.29M2,8.69H5.29M2,7.6H5.29M2,6.5H5.29M3.1,58V56.9H2M4.19,58V55.81H2M5.29,58V54.71H2M6.38,58V54.71M7.48,58V54.71m1.09,0V58m1.1,0V54.71M10.77,58V54.71M11.86,58V54.71M13,58V52.52M14.05,58V54.71M15.15,58V54.71M16.24,58V54.71M17.34,58V54.71m1.1,0V58m1.09,0V54.71M20.63,58V54.71M21.72,58V54.71M22.82,58V54.71m1.09-2.19V58M25,58V54.71M26.11,58V54.71M27.2,58V54.71M28.3,58V54.71m1.09,0V58m1.1-3.29V58m1.1,0V54.71M32.68,58V54.71M33.78,58V54.71M34.87,58V52.52M36,58V54.71M37.06,58V54.71M38.16,58V54.71M39.26,58V54.71M40.35,58V54.71M41.45,58V54.71M42.54,58V54.71M43.64,58V54.71M44.73,58V54.71M45.83,58V52.52M46.93,58V54.71m1.09,0V58m1.1,0V54.71M50.21,58V54.71M51.31,58V54.71M52.4,58V54.71M53.5,58V54.71" style="fill:none;stroke:#fff;stroke-width:0.3px"/></svg>
